# This file uses centimeters as units for non-parametric coordinates.

mtllib Artefact_Rohan.mtl
g default
v 0.951057 1.546146 -0.624175
v 0.809018 1.546146 -1.187252
v 0.587786 1.546146 -1.634112
v 0.309017 1.546146 -1.921014
v 0.000000 1.546146 -2.019874
v -0.309017 1.546146 -1.921014
v -0.587785 1.546146 -1.634112
v -0.809017 1.546146 -1.187252
v -0.951057 1.546146 -0.624175
v -1.000000 1.546146 0.000000
v -0.951057 1.546146 0.624175
v -0.809017 1.546146 1.187252
v -0.587785 1.546146 1.634112
v -0.309017 1.546146 1.921014
v -0.000000 1.546146 2.019873
v 0.309017 1.546146 1.921013
v 0.587785 1.546146 1.634112
v 0.809017 1.546146 1.187252
v 0.951057 1.546146 0.624175
v 1.000000 1.546146 0.000000
v 0.951057 1.671017 -0.624175
v 0.809018 1.671017 -1.187252
v 0.587786 1.671017 -1.634112
v 0.309017 1.671017 -1.921014
v 0.000000 1.671017 -2.019874
v -0.309017 1.671017 -1.921014
v -0.587785 1.671017 -1.634112
v -0.809017 1.671017 -1.187252
v -0.951057 1.671017 -0.624175
v -1.000000 1.671017 0.000000
v -0.951057 1.671017 0.624175
v -0.809017 1.671017 1.187252
v -0.587785 1.671017 1.634112
v -0.309017 1.671016 1.921014
v -0.000000 1.671016 2.019873
v 0.309017 1.671017 1.921014
v 0.587785 1.671016 1.634112
v 0.809017 1.671017 1.187251
v 0.951057 1.671016 0.624175
v 1.000000 1.671017 0.000000
v 0.000000 1.360687 0.000000
v 0.590911 1.294957 -0.460917
v 0.502659 1.294957 -0.876717
v -0.000000 1.294957 -0.000000
v 0.365203 1.294957 -1.206698
v 0.191999 1.294957 -1.418558
v 0.000000 1.294957 -1.491560
v -0.191999 1.294957 -1.418558
v -0.365203 1.294957 -1.206698
v -0.502659 1.294957 -0.876717
v -0.590911 1.294957 -0.460917
v -0.621321 1.294957 -0.000000
v -0.590911 1.294957 0.460917
v -0.502659 1.294957 0.876717
v -0.365203 1.294957 1.206697
v -0.191999 1.294957 1.418557
v -0.000000 1.294957 1.491559
v 0.191999 1.294957 1.418557
v 0.365203 1.294957 1.206697
v 0.502659 1.294957 0.876717
v 0.590911 1.294957 0.460917
v 0.621320 1.294957 -0.000000
v 0.634038 1.671016 -0.416117
v 0.539345 1.671016 -0.791502
v 0.391857 1.671016 -1.089409
v 0.206012 1.671016 -1.280677
v 0.000000 1.671016 -1.346583
v -0.206012 1.671016 -1.280677
v -0.391857 1.671016 -1.089409
v -0.539345 1.671016 -0.791502
v -0.634038 1.671016 -0.416117
v -0.666667 1.671016 0.000000
v -0.634038 1.671016 0.416117
v -0.539345 1.671017 0.791501
v -0.391857 1.671017 1.089408
v -0.206011 1.671016 1.280676
v -0.000000 1.671016 1.346583
v 0.206011 1.671017 1.280677
v 0.391857 1.671016 1.089409
v 0.539345 1.671017 0.791501
v 0.634038 1.671016 0.416117
v 0.666667 1.671017 0.000000
v 0.491334 1.360687 -0.385856
v 0.417953 1.360687 -0.733942
v 0.303661 1.360687 -1.010185
v 0.159644 1.360687 -1.187544
v 0.000000 1.360687 -1.248657
v -0.159644 1.360687 -1.187544
v -0.303661 1.360687 -1.010185
v -0.417953 1.360687 -0.733942
v -0.491333 1.360687 -0.385856
v -0.516618 1.360687 0.000000
v -0.491333 1.360687 0.385856
v -0.417953 1.360687 0.733942
v -0.303661 1.360687 1.010185
v -0.159644 1.360687 1.187544
v 0.000000 1.360687 1.248657
v 0.159644 1.360687 1.187544
v 0.303661 1.360687 1.010185
v 0.417953 1.360687 0.733942
v 0.491333 1.360687 0.385856
v 0.516618 1.360687 0.000000
vt 0.648603 0.107966
vt 0.626409 0.064408
vt 0.591842 0.029841
vt 0.548284 0.007647
vt 0.500000 -0.000000
vt 0.451716 0.007647
vt 0.408159 0.029841
vt 0.373591 0.064409
vt 0.351397 0.107966
vt 0.343750 0.156250
vt 0.351397 0.204534
vt 0.373591 0.248091
vt 0.408159 0.282659
vt 0.451716 0.304853
vt 0.500000 0.312500
vt 0.548284 0.304853
vt 0.591841 0.282659
vt 0.626409 0.248091
vt 0.648603 0.204534
vt 0.656250 0.156250
vt 0.375000 0.312500
vt 0.387500 0.312500
vt 0.400000 0.312500
vt 0.412500 0.312500
vt 0.425000 0.312500
vt 0.437500 0.312500
vt 0.450000 0.312500
vt 0.462500 0.312500
vt 0.475000 0.312500
vt 0.487500 0.312500
vt 0.500000 0.312500
vt 0.512500 0.312500
vt 0.525000 0.312500
vt 0.537500 0.312500
vt 0.550000 0.312500
vt 0.562500 0.312500
vt 0.575000 0.312500
vt 0.587500 0.312500
vt 0.600000 0.312500
vt 0.612500 0.312500
vt 0.625000 0.312500
vt 0.375000 0.688440
vt 0.387500 0.688440
vt 0.400000 0.688440
vt 0.412500 0.688440
vt 0.425000 0.688440
vt 0.437500 0.688440
vt 0.450000 0.688440
vt 0.462500 0.688440
vt 0.475000 0.688440
vt 0.487500 0.688440
vt 0.500000 0.688440
vt 0.512500 0.688440
vt 0.525000 0.688440
vt 0.537500 0.688440
vt 0.550000 0.688440
vt 0.562500 0.688440
vt 0.575000 0.688440
vt 0.587500 0.688440
vt 0.600000 0.688440
vt 0.612500 0.688440
vt 0.625000 0.688440
vt 0.648603 0.795466
vt 0.626409 0.751908
vt 0.591842 0.717341
vt 0.548284 0.695147
vt 0.500000 0.687500
vt 0.451716 0.695147
vt 0.408159 0.717341
vt 0.373591 0.751909
vt 0.351397 0.795466
vt 0.343750 0.843750
vt 0.351397 0.892034
vt 0.373591 0.935591
vt 0.408159 0.970159
vt 0.451716 0.992353
vt 0.500000 1.000000
vt 0.548284 0.992353
vt 0.591841 0.970159
vt 0.626409 0.935591
vt 0.648603 0.892034
vt 0.656250 0.843750
vt 0.500000 0.150000
vt 0.500000 0.837500
vt 0.626409 0.064408
vt 0.648603 0.107966
vt 0.591842 0.029841
vt 0.548284 0.007647
vt 0.500000 -0.000000
vt 0.451716 0.007647
vt 0.408159 0.029841
vt 0.373591 0.064409
vt 0.351397 0.107966
vt 0.343750 0.156250
vt 0.351397 0.204534
vt 0.373591 0.248091
vt 0.408159 0.282659
vt 0.451716 0.304853
vt 0.500000 0.312500
vt 0.548284 0.304853
vt 0.591841 0.282659
vt 0.626409 0.248091
vt 0.648603 0.204534
vt 0.656250 0.156250
vt 0.599068 0.873856
vt 0.584273 0.902894
vt 0.561228 0.925939
vt 0.532189 0.940735
vt 0.500000 0.945833
vt 0.467811 0.940735
vt 0.438772 0.925939
vt 0.415727 0.902894
vt 0.400932 0.873856
vt 0.395833 0.841667
vt 0.400932 0.809477
vt 0.415727 0.780439
vt 0.438772 0.757394
vt 0.467811 0.742598
vt 0.500000 0.737500
vt 0.532189 0.742598
vt 0.561228 0.757394
vt 0.584273 0.780439
vt 0.599068 0.809477
vt 0.604167 0.841667
vt 0.549534 0.855678
vt 0.542136 0.870197
vt 0.530614 0.881720
vt 0.516095 0.889118
vt 0.500000 0.891667
vt 0.483905 0.889118
vt 0.469386 0.881720
vt 0.457864 0.870197
vt 0.450466 0.855678
vt 0.447917 0.839583
vt 0.450466 0.823489
vt 0.457864 0.808969
vt 0.469386 0.797447
vt 0.483905 0.790049
vt 0.500000 0.787500
vt 0.516095 0.790049
vt 0.530614 0.797447
vt 0.542136 0.808969
vt 0.549534 0.823489
vt 0.552083 0.839583
vn 0.715635 -0.689758 -0.110001
vn 0.676396 -0.698887 -0.232479
vn 0.940978 0.000000 -0.338467
vn 0.987308 0.000000 -0.158819
vn 0.578214 -0.723834 -0.376476
vn 0.826380 0.000000 -0.563112
vn 0.362574 -0.768050 -0.527862
vn 0.548683 0.000000 -0.836030
vn -0.000000 -0.796678 -0.604404
vn -0.000000 0.000000 -1.000000
vn -0.362575 -0.768050 -0.527862
vn -0.548684 0.000000 -0.836030
vn -0.578214 -0.723834 -0.376475
vn -0.826381 0.000000 -0.563112
vn -0.676396 -0.698886 -0.232479
vn -0.940978 0.000000 -0.338467
vn -0.715635 -0.689758 -0.110002
vn -0.987308 0.000000 -0.158820
vn -0.725921 -0.687778 0.000000
vn -1.000000 0.000000 0.000000
vn -0.715635 -0.689758 0.110002
vn -0.987308 0.000000 0.158820
vn -0.676396 -0.698886 0.232479
vn -0.940978 0.000000 0.338467
vn -0.578214 -0.723834 0.376476
vn -0.826381 0.000000 0.563112
vn -0.362575 -0.768050 0.527862
vn -0.548684 0.000000 0.836030
vn 0.000000 -0.796678 0.604404
vn 0.000001 -0.000001 1.000000
vn 0.362574 -0.768051 0.527862
vn 0.548684 -0.000002 0.836030
vn 0.578213 -0.723834 0.376475
vn 0.826381 -0.000002 0.563112
vn 0.676396 -0.698887 0.232479
vn 0.940978 -0.000002 0.338467
vn 0.715635 -0.689758 0.110002
vn 0.987308 -0.000002 0.158820
vn 0.725921 -0.687778 0.000000
vn 1.000000 -0.000001 0.000000
vn 0.000000 -1.000000 0.000000
vn 0.000000 -1.000000 0.000000
vn 0.000000 -1.000000 0.000000
vn -0.000000 -1.000000 0.000000
vn 0.000000 -1.000000 0.000000
vn -0.000000 -1.000000 0.000000
vn -0.000000 -1.000000 -0.000000
vn 0.000000 -1.000000 -0.000000
vn -0.000000 -1.000000 0.000000
vn 0.000000 -1.000000 0.000000
vn 0.000000 -1.000000 0.000000
vn 0.000000 -1.000000 -0.000000
vn -0.000000 -1.000000 -0.000000
vn 0.000000 -1.000000 -0.000000
vn 0.000000 -1.000000 0.000000
vn 0.000000 -1.000000 0.000000
vn 0.000000 -1.000000 -0.000000
vn 0.000000 -1.000000 -0.000000
vn 0.000000 -1.000000 -0.000000
vn 0.000000 -1.000000 0.000000
vn 0.000000 -1.000000 -0.000000
vn -0.626568 0.773801 0.092970
vn -0.585175 0.787318 0.194166
vn 0.000000 1.000000 0.000000
vn -0.489112 0.816228 0.307476
vn -0.297235 0.858516 0.417853
vn -0.000000 0.882794 0.469761
vn 0.297235 0.858516 0.417853
vn 0.489112 0.816228 0.307476
vn 0.585175 0.787318 0.194166
vn 0.626568 0.773801 0.092970
vn 0.637916 0.770106 0.000000
vn 0.626568 0.773801 -0.092970
vn 0.585175 0.787318 -0.194166
vn 0.489112 0.816227 -0.307476
vn 0.297235 0.858516 -0.417853
vn 0.000000 0.882794 -0.469760
vn -0.297235 0.858516 -0.417854
vn -0.489112 0.816228 -0.307476
vn -0.585175 0.787318 -0.194166
vn -0.626568 0.773802 -0.092970
vn -0.637917 0.770105 -0.000000
vn 0.547707 -0.832613 -0.082290
vn 0.515095 -0.839480 -0.173062
vn 0.434001 -0.857510 -0.276260
vn 0.265080 -0.887330 -0.377331
vn 0.144163 -0.895876 -0.420267
vn -0.144163 -0.895876 -0.420267
vn -0.265080 -0.887330 -0.377331
vn -0.434001 -0.857510 -0.276260
vn -0.515096 -0.839480 -0.173062
vn -0.547708 -0.832613 -0.082291
vn -0.556131 -0.831094 0.000000
vn -0.547708 -0.832613 0.082291
vn -0.515096 -0.839480 0.173062
vn -0.434001 -0.857510 0.276260
vn -0.265080 -0.887330 0.377331
vn -0.144163 -0.895876 0.420267
vn 0.144163 -0.895876 0.420266
vn 0.265079 -0.887330 0.377331
vn 0.434001 -0.857510 0.276260
vn 0.515096 -0.839480 0.173062
vn 0.547708 -0.832613 0.082291
vn 0.556131 -0.831095 0.000000
vn -0.000000 1.000000 -0.000000
vn -0.000000 1.000000 0.000000
vn -0.388728 0.912346 0.128509
vn -0.431902 0.899657 0.063854
vn -0.000000 1.000000 0.000000
vn -0.305166 0.932924 0.191118
vn -0.000000 1.000000 0.000000
vn -0.172154 0.955113 0.241084
vn 0.000000 1.000000 0.000000
vn -0.000000 0.965338 0.261005
vn 0.000000 1.000000 0.000000
vn 0.172154 0.955113 0.241084
vn 0.000000 1.000000 0.000000
vn 0.305166 0.932924 0.191118
vn 0.000000 1.000000 0.000000
vn 0.388729 0.912346 0.128509
vn 0.000000 1.000000 0.000000
vn 0.431902 0.899657 0.063854
vn 0.000000 1.000000 0.000000
vn 0.444991 0.895535 0.000000
vn 0.000000 1.000000 -0.000000
vn 0.431902 0.899657 -0.063854
vn 0.000000 1.000000 -0.000000
vn 0.388728 0.912346 -0.128509
vn 0.000000 1.000000 -0.000000
vn 0.305166 0.932924 -0.191118
vn 0.000000 1.000000 0.000000
vn 0.172154 0.955113 -0.241085
vn -0.000000 1.000000 -0.000000
vn -0.000000 0.965337 -0.261005
vn -0.000000 1.000000 -0.000000
vn -0.172153 0.955114 -0.241084
vn -0.000000 1.000000 -0.000000
vn -0.305167 0.932924 -0.191119
vn -0.000000 1.000000 -0.000000
vn -0.388728 0.912347 -0.128509
vn -0.000000 1.000000 -0.000000
vn -0.431903 0.899657 -0.063854
vn -0.000000 1.000000 0.000000
vn -0.444991 0.895535 -0.000000
s 1
g pCylinder1
usemtl initialShadingGroup
f 1/21/1 2/22/2 22/43/3 21/42/4
f 2/22/2 3/23/5 23/44/6 22/43/3
f 3/23/5 4/24/7 24/45/8 23/44/6
f 4/24/7 5/25/9 25/46/10 24/45/8
f 5/25/9 6/26/11 26/47/12 25/46/10
f 6/26/11 7/27/13 27/48/14 26/47/12
f 7/27/13 8/28/15 28/49/16 27/48/14
f 8/28/15 9/29/17 29/50/18 28/49/16
f 9/29/17 10/30/19 30/51/20 29/50/18
f 10/30/19 11/31/21 31/52/22 30/51/20
f 11/31/21 12/32/23 32/53/24 31/52/22
f 12/32/23 13/33/25 33/54/26 32/53/24
f 13/33/25 14/34/27 34/55/28 33/54/26
f 14/34/27 15/35/29 35/56/30 34/55/28
f 15/35/29 16/36/31 36/57/32 35/56/30
f 16/36/31 17/37/33 37/58/34 36/57/32
f 17/37/33 18/38/35 38/59/36 37/58/34
f 18/38/35 19/39/37 39/60/38 38/59/36
f 19/39/37 20/40/39 40/61/40 39/60/38
f 20/40/39 1/41/1 21/62/4 40/61/40
s 2
f 43/85/41 42/86/42 44/83/43
f 45/87/44 43/85/41 44/83/43
f 46/88/45 45/87/44 44/83/43
f 47/89/46 46/88/45 44/83/43
f 48/90/47 47/89/46 44/83/43
f 49/91/48 48/90/47 44/83/43
f 50/92/49 49/91/48 44/83/43
f 51/93/50 50/92/49 44/83/43
f 52/94/51 51/93/50 44/83/43
f 53/95/52 52/94/51 44/83/43
f 54/96/53 53/95/52 44/83/43
f 55/97/54 54/96/53 44/83/43
f 56/98/55 55/97/54 44/83/43
f 57/99/56 56/98/55 44/83/43
f 58/100/57 57/99/56 44/83/43
f 59/101/58 58/100/57 44/83/43
f 60/102/59 59/101/58 44/83/43
f 61/103/60 60/102/59 44/83/43
f 62/104/61 61/103/60 44/83/43
f 42/86/42 62/104/61 44/83/43
s 3
f 83/125/62 84/126/63 41/84/64
f 84/126/63 85/127/65 41/84/64
f 85/127/65 86/128/66 41/84/64
f 86/128/66 87/129/67 41/84/64
f 87/129/67 88/130/68 41/84/64
f 88/130/68 89/131/69 41/84/64
f 89/131/69 90/132/70 41/84/64
f 90/132/70 91/133/71 41/84/64
f 91/133/71 92/134/72 41/84/64
f 92/134/72 93/135/73 41/84/64
f 93/135/73 94/136/74 41/84/64
f 94/136/74 95/137/75 41/84/64
f 95/137/75 96/138/76 41/84/64
f 96/138/76 97/139/77 41/84/64
f 97/139/77 98/140/78 41/84/64
f 98/140/78 99/141/79 41/84/64
f 99/141/79 100/142/80 41/84/64
f 100/142/80 101/143/81 41/84/64
f 101/143/81 102/144/82 41/84/64
f 102/144/82 83/125/62 41/84/64
s 1
f 2/2/2 1/1/1 42/86/83 43/85/84
f 3/3/5 2/2/2 43/85/84 45/87/85
f 4/4/7 3/3/5 45/87/85 46/88/86
f 5/5/9 4/4/7 46/88/86 47/89/87
f 6/6/11 5/5/9 47/89/88 48/90/89
f 7/7/13 6/6/11 48/90/89 49/91/90
f 8/8/15 7/7/13 49/91/90 50/92/91
f 9/9/17 8/8/15 50/92/91 51/93/92
f 10/10/19 9/9/17 51/93/92 52/94/93
f 11/11/21 10/10/19 52/94/93 53/95/94
f 12/12/23 11/11/21 53/95/94 54/96/95
f 13/13/25 12/12/23 54/96/95 55/97/96
f 14/14/27 13/13/25 55/97/96 56/98/97
f 15/15/29 14/14/27 56/98/97 57/99/98
f 16/16/31 15/15/29 57/99/99 58/100/100
f 17/17/33 16/16/31 58/100/100 59/101/101
f 18/18/35 17/17/33 59/101/101 60/102/102
f 19/19/37 18/18/35 60/102/102 61/103/103
f 20/20/39 19/19/37 61/103/103 62/104/104
f 1/1/1 20/20/39 62/104/104 42/86/83
s 3
f 21/81/105 22/80/106 64/106/107 63/105/108
f 22/80/106 23/79/109 65/107/110 64/106/107
f 23/79/109 24/78/111 66/108/112 65/107/110
f 24/78/111 25/77/113 67/109/114 66/108/112
f 25/77/113 26/76/115 68/110/116 67/109/114
f 26/76/115 27/75/117 69/111/118 68/110/116
f 27/75/117 28/74/119 70/112/120 69/111/118
f 28/74/119 29/73/121 71/113/122 70/112/120
f 29/73/121 30/72/123 72/114/124 71/113/122
f 30/72/123 31/71/125 73/115/126 72/114/124
f 31/71/125 32/70/127 74/116/128 73/115/126
f 32/70/127 33/69/129 75/117/130 74/116/128
f 33/69/129 34/68/131 76/118/132 75/117/130
f 34/68/131 35/67/133 77/119/134 76/118/132
f 35/67/133 36/66/135 78/120/136 77/119/134
f 36/66/135 37/65/137 79/121/138 78/120/136
f 37/65/137 38/64/139 80/122/140 79/121/138
f 38/64/139 39/63/141 81/123/142 80/122/140
f 39/63/141 40/82/143 82/124/144 81/123/142
f 40/82/143 21/81/105 63/105/108 82/124/144
f 63/105/108 64/106/107 84/126/63 83/125/62
f 64/106/107 65/107/110 85/127/65 84/126/63
f 65/107/110 66/108/112 86/128/66 85/127/65
f 66/108/112 67/109/114 87/129/67 86/128/66
f 67/109/114 68/110/116 88/130/68 87/129/67
f 68/110/116 69/111/118 89/131/69 88/130/68
f 69/111/118 70/112/120 90/132/70 89/131/69
f 70/112/120 71/113/122 91/133/71 90/132/70
f 71/113/122 72/114/124 92/134/72 91/133/71
f 72/114/124 73/115/126 93/135/73 92/134/72
f 73/115/126 74/116/128 94/136/74 93/135/73
f 74/116/128 75/117/130 95/137/75 94/136/74
f 75/117/130 76/118/132 96/138/76 95/137/75
f 76/118/132 77/119/134 97/139/77 96/138/76
f 77/119/134 78/120/136 98/140/78 97/139/77
f 78/120/136 79/121/138 99/141/79 98/140/78
f 79/121/138 80/122/140 100/142/80 99/141/79
f 80/122/140 81/123/142 101/143/81 100/142/80
f 81/123/142 82/124/144 102/144/82 101/143/81
f 82/124/144 63/105/108 83/125/62 102/144/82
